<svg xmlns="http://www.w3.org/2000/svg" viewBox="0 0 462 258" className="w-full h-auto">
  <path style={{ fill: "#ffffff", stroke: "none" }} d="M0 0L0 68C7.2854 64.1667 14.4441 59.6863 22 56.4282C31.7321 52.2318 42.0582 49.5797 52 45.9468C66.0301 40.8199 80.8928 35.0417 96 35C96 23.1439 96.5745 10.7915 102 0L0 0z" />
  <path style={{ fill: "#ffffff", stroke: "none" }} d="M96 35C80.0387 35.0106 64.8559 41.0206 50 46.3079C40.3653 49.7369 30.4028 52.3738 21 56.4282C15.8534 58.6474 10.9328 61.5944 6.00463 64.2623C3.92214 65.3897 1.46699 66.6298 0.787809 69.1049C-0.0550073 72.1763 2.06428 76.1233 3 79C18.1366 76.1898 32.8661 80.99 48 81C48 88.3937 47.5472 95.9375 50.2593 102.985C51.9 107.249 57.8519 111.04 57.5586 115.91C57.061 124.173 41.4059 124.37 38.0864 131.155C36.609 134.175 39.2174 136.078 42.0193 134.918C44.893 133.729 47.2878 131.173 50 129.619C55.4663 126.487 61.1406 124.26 67 122C62.7635 125.017 56.8608 126.945 53.6682 131.184C52.4835 132.757 51.1935 135.471 52.8472 137.203C54.5821 139.019 57.2822 137.579 58.9614 136.502C63.3338 133.7 67.1268 129.454 71 126L72 127C67.0677 132.664 63.3673 139.008 58.848 144.961C55.097 149.901 50.4978 154.123 46.669 159C45.1077 160.989 38.6003 168.302 41.8465 170.914C45.604 173.936 49.6667 165.165 51.0648 163.09C58.4892 152.069 69.2908 143.568 77 133L88 145C77.4655 149.073 65.1045 158.373 60.5332 169C58.89 172.82 59.6669 176.038 59.6605 180C59.6541 183.996 58.3404 188.018 59.4336 191.999C61.7004 200.254 72.7456 201.497 80 201.907C95.8772 202.804 94.6575 180.927 107 174.442C114.647 170.425 124.68 172.095 133 171.996C146.287 171.838 158.36 170.794 170 164C169.967 175.845 164.507 186.803 161.097 198C160.001 201.6 161.303 205.499 159.951 208.942C158.525 212.576 154.412 213.845 151.943 216.633C148.457 220.571 147.986 227.995 149.434 232.956C150.79 237.605 154.911 237.748 159 238.086C165.053 238.585 170.997 239.792 177 238.061C184.973 235.762 189.091 229.327 193.63 223C200.025 214.086 207.405 204.925 210 194C215.495 200.665 219.174 208.598 225 215C215.026 213.148 206.353 213.327 198.043 219.859C192.741 224.026 189.451 232.136 195.394 237.44C197.887 239.665 201.89 240.613 205 241.645C217.349 245.742 231.146 243 244 243C266.375 243 288.669 244.938 311 243.961C317.485 243.677 324.614 243.506 331 242.385C334.833 241.712 339.688 239.656 343.576 240.213C349.612 241.078 356.186 246.712 362 248.935C367.567 251.064 373.263 252.008 379 253.478C395.157 257.618 413.882 261.547 430 254.084C435.778 251.409 440.645 246.627 444.907 242C450.704 235.706 457.147 228.223 459.895 220C464.555 206.056 461.495 187.682 457.637 174C454.521 162.952 448.207 154.874 440 147.039C436.113 143.329 431.411 139.057 426 137.833C414.061 135.133 414.014 152.91 416.549 160C420.342 170.61 434.265 176.836 435.811 188C437.052 196.962 436.843 215.406 430.301 222.502C425.361 227.859 417.654 228 411 228C396.932 228 386.31 222.77 374 216.326C370.726 214.613 366.989 213.826 364.015 211.57C360.879 209.192 358.672 205.851 355.91 203.09C352.339 199.518 347.631 196.729 345.434 192C342.651 186.011 343 177.472 343 171C342.999 157.268 344.448 142.633 342.816 129C340.132 106.586 329.725 89.1275 315.804 72C308.828 63.4172 301.867 54.7471 292 49.3133C274.411 39.6264 252.909 36.4557 233 39.3002C220.188 41.1306 207.847 46.5449 195 47.8295C184.069 48.9224 170.718 49.1661 160 46.625C153.666 45.1233 147.329 42.5847 141 40.8418C126.985 36.9822 121.419 24.4626 113.904 13C111.21 8.89246 111.553 -0.272034 105 0.206787C100.114 0.563751 99.3621 5.08401 98.5517 9C96.7146 17.8773 96 25.9341 96 35z" />
  
  <!-- Eye (unchanged colors) -->
  <path style={{ fill: "#efc101", stroke: "none" }} d="M100 119C98.9173 116.843 97.4067 114.506 97.4522 111.999C97.6013 103.778 108.771 102.31 111.377 110.015C112.485 113.29 110.513 116.249 109 119C120.404 114.476 119.096 96.7519 106 95.642C92.0139 94.4566 88.9072 112.93 100 119z" />
  <path style={{ fill: "#6f5901", stroke: "none" }} d="M101.109 106.029C93.1495 110.449 100.177 122.255 107.891 117.971C115.977 113.482 108.884 101.71 101.109 106.029z" />
</svg>
